<?xml version="1.0" standalone="no"?>
<!DOCTYPE svg PUBLIC "-//W3C//DTD SVG 20010904//EN"
 "http://www.w3.org/TR/2001/REC-SVG-20010904/DTD/svg10.dtd">
<svg version="1.0" xmlns="http://www.w3.org/2000/svg"
 width="512.000000pt" height="512.000000pt" viewBox="0 0 512.000000 512.000000"
 preserveAspectRatio="xMidYMid meet">
<metadata>
Created by potrace 1.11, written by Peter Selinger 2001-2013
</metadata>
<g transform="translate(0.000000,512.000000) scale(0.100000,-0.100000)"
fill="#000000" stroke="none">
<path d="M409 5066 c-106 -28 -219 -129 -261 -234 l-23 -57 0 -2215 0 -2215
23 -58 c33 -81 116 -168 201 -210 l66 -32 1774 -3 c1600 -2 1780 -1 1830 14
145 41 253 160 280 309 13 67 16 1615 4 1615 -5 0 -55 -33 -113 -74 l-105 -73
-5 -725 -5 -724 -25 -37 c-14 -21 -43 -46 -66 -57 -40 -20 -65 -20 -1775 -20
l-1734 0 -40 23 c-26 14 -48 37 -62 67 l-23 44 0 2156 0 2156 23 44 c14 30 36
53 62 67 l40 23 1167 0 1167 0 3 -482 c3 -479 3 -484 26 -540 45 -113 166
-211 290 -237 34 -7 212 -11 502 -11 l450 0 0 -259 0 -259 38 37 c20 20 72 60
115 89 l77 52 0 234 c0 140 -4 246 -11 263 -11 32 -1279 1306 -1321 1329 -23
12 -210 14 -1275 13 -956 0 -1259 -3 -1294 -13z"/>
<path d="M1110 4602 c0 -26 -4 -29 -57 -40 -31 -6 -74 -24 -95 -39 -93 -64
-124 -206 -64 -296 25 -37 100 -81 169 -98 l47 -13 0 -112 0 -113 -27 8 c-49
14 -97 38 -133 66 l-35 26 -42 -48 -43 -48 28 -23 c42 -35 137 -79 197 -93 55
-12 55 -12 55 -51 0 -37 1 -38 35 -38 34 0 35 1 35 39 0 38 1 38 45 44 146 20
231 132 210 275 -10 69 -76 131 -176 164 l-74 25 -3 101 -3 102 29 0 c16 0 54
-13 85 -28 l57 -29 27 41 c16 22 32 46 36 53 11 17 -96 69 -175 85 -54 11 -58
14 -58 40 0 25 -3 28 -35 28 -32 0 -35 -3 -35 -28z m0 -247 c0 -60 -4 -95 -10
-95 -41 0 -100 57 -100 96 0 39 54 91 98 93 9 1 12 -24 12 -94z m124 -279 c65
-27 88 -102 44 -144 -22 -20 -68 -42 -89 -42 -5 0 -9 45 -9 100 0 62 4 100 10
100 6 0 26 -6 44 -14z"/>
<path d="M873 3218 c-12 -6 -27 -24 -34 -41 -15 -36 2 -74 41 -94 35 -18 2700
-19 2733 -1 61 32 64 103 6 133 -24 13 -212 15 -1376 14 -922 0 -1355 -4
-1370 -11z"/>
<path d="M4545 3210 c-11 -4 -87 -55 -170 -112 -110 -77 -150 -110 -149 -125
0 -22 371 -562 391 -570 7 -3 83 44 169 103 186 129 209 156 209 250 l0 62
-100 147 c-121 179 -159 223 -202 241 -36 15 -116 18 -148 4z"/>
<path d="M3320 2368 c-916 -635 -827 -569 -841 -617 -17 -58 -4 -108 40 -152
44 -45 96 -58 146 -38 44 18 1552 1059 1559 1078 8 19 -136 225 -160 229 -12
1 -306 -197 -744 -500z"/>
<path d="M855 2645 c-30 -30 -32 -64 -4 -99 l20 -26 1200 0 1200 0 97 67 c53
36 101 70 106 75 6 4 -576 8 -1292 8 l-1303 0 -24 -25z"/>
<path d="M3535 1986 c-496 -344 -778 -545 -792 -566 -44 -63 -21 -160 46 -195
53 -27 111 -20 177 23 113 74 1469 1014 1488 1033 20 18 19 19 -28 88 -76 112
-106 151 -114 151 -4 -1 -353 -241 -777 -534z"/>
<path d="M851 2084 c-28 -35 -26 -69 4 -99 l24 -25 792 0 791 0 97 66 c53 37
100 71 105 75 6 5 -395 9 -891 9 l-902 0 -20 -26z"/>
<path d="M2207 1593 c-3 -5 -82 -147 -177 -317 -149 -266 -172 -313 -164 -334
5 -14 18 -28 29 -32 11 -4 175 17 365 46 190 29 349 53 354 54 4 0 6 8 4 18
-7 24 -388 572 -398 572 -5 0 -11 -3 -13 -7z"/>
<path d="M873 1548 c-12 -6 -27 -23 -34 -39 -15 -37 2 -82 37 -98 18 -8 177
-11 534 -11 l510 0 23 38 c13 20 34 56 46 80 l21 42 -557 -1 c-369 0 -565 -4
-580 -11z"/>
<path d="M855 975 c-30 -30 -32 -64 -4 -99 l20 -26 431 0 c406 0 430 1 423 18
-4 9 -10 43 -13 75 l-4 57 -415 0 -414 0 -24 -25z"/>
</g>
</svg>
